<svg width="82" height="34" viewBox="0 0 82 34" fill="none" xmlns="http://www.w3.org/2000/svg">
<path d="M10.68 33.4799C7.16002 33.4799 4.65336 32.5599 3.16002 30.7199C1.69336 28.8532 0.960022 26.1732 0.960022 22.6799V10.9999C0.960022 7.42658 1.69336 4.73325 3.16002 2.91991C4.62669 1.07991 7.13336 0.159912 10.68 0.159912C14.0667 0.159912 16.4667 0.973246 17.88 2.59991C19.2934 4.22658 20 6.53325 20 9.51991V12.3199H13V9.07991C13 7.82658 12.8667 6.86658 12.6 6.19991C12.3334 5.53325 11.6934 5.19991 10.68 5.19991C9.66669 5.19991 9.00002 5.55991 8.68002 6.27991C8.36002 6.97325 8.20002 7.94658 8.20002 9.19991V24.4399C8.20002 25.7199 8.36002 26.7066 8.68002 27.3999C9.02669 28.0666 9.69336 28.3999 10.68 28.3999C11.6667 28.3999 12.2934 28.0666 12.56 27.3999C12.8534 26.7066 13 25.7199 13 24.4399V21.0399H20V23.8399C20 26.8799 19.2934 29.2532 17.88 30.9599C16.4667 32.6399 14.0667 33.4799 10.68 33.4799Z" fill="white"/>
<path d="M23.9391 0.599912H28.9791L35.6191 16.1999V0.599912H41.5391V32.9999H36.6991L30.0591 16.1999V32.9999H23.9391V0.599912Z" fill="white"/>
<path d="M54.961 33.4799C51.8676 33.4799 49.561 32.6666 48.041 31.0399C46.5476 29.3866 45.7476 26.7732 45.641 23.1999L51.761 22.2799C51.7876 24.3332 52.0276 25.8132 52.481 26.7199C52.961 27.5999 53.6676 28.0399 54.601 28.0399C55.801 28.0399 56.401 27.2532 56.401 25.6799C56.401 24.4266 56.1076 23.3466 55.521 22.4399C54.961 21.5332 54.0676 20.5599 52.841 19.5199L50.041 17.0799C48.6543 15.9066 47.5743 14.6666 46.801 13.3599C46.0543 12.0266 45.681 10.4532 45.681 8.63991C45.681 5.91991 46.481 3.82658 48.081 2.35991C49.7076 0.893246 51.9343 0.159912 54.761 0.159912C57.8276 0.159912 59.9076 1.05325 61.001 2.83991C62.121 4.62658 62.721 6.79991 62.801 9.35991L56.641 10.1199C56.5876 8.43991 56.4276 7.23991 56.161 6.51991C55.921 5.77325 55.3743 5.39991 54.521 5.39991C53.9076 5.39991 53.4276 5.66658 53.081 6.19991C52.761 6.70658 52.601 7.27991 52.601 7.91991C52.601 9.01325 52.841 9.93325 53.321 10.6799C53.8276 11.4266 54.6276 12.2799 55.721 13.2399L58.401 15.5999C60.001 16.9599 61.241 18.3999 62.121 19.9199C63.001 21.4399 63.441 23.2399 63.441 25.3199C63.441 26.8399 63.081 28.2266 62.361 29.4799C61.6676 30.7066 60.681 31.6799 59.401 32.3999C58.121 33.1199 56.641 33.4799 54.961 33.4799Z" fill="white"/>
<path d="M69.8278 5.91991H64.9478V0.599912H81.8678V5.91991H77.0278V32.9999H69.8278V5.91991Z" fill="white"/>
</svg>
